HIERARCHY
ROOT RootJoint
{
    OFFSET   0.000000   0.000000   0.000000
    CHANNELS 6 Xposition Yposition Zposition Xrotation Yrotation Zrotation
    JOINT pelvis_lowerback
    {
        OFFSET   0.000000   0.093605   0.000000
        CHANNELS 3 Xrotation Yrotation Zrotation
        JOINT lowerback_torso
        {
            OFFSET   0.000000   0.100000   0.000000
            CHANNELS 3 Xrotation Yrotation Zrotation
            JOINT torso_head
            {
                OFFSET   0.000000   0.282350   0.000000
                CHANNELS 3 Xrotation Yrotation Zrotation
                End Site
                {
                    OFFSET   0.000000   0.192650   0.000000
                }
            }
            JOINT rTorso_Clavicle
            {
                OFFSET  -0.001000   0.157500   0.000000
                CHANNELS 3 Xrotation Yrotation Zrotation
                JOINT rShoulder
                {
                    OFFSET  -0.117647   0.000000   0.000000
                    CHANNELS 3 Xrotation Yrotation Zrotation
                    JOINT rElbow
                    {
                        OFFSET  -0.245000   0.000000   0.000000
                        CHANNELS 3 Xrotation Yrotation Zrotation
                        JOINT rWrist
                        {
                            OFFSET  -0.240000   0.000000   0.000000
                            CHANNELS 3 Xrotation Yrotation Zrotation
                            End Site
                            {
                                OFFSET  -0.116353  -0.002500   0.000000
                            }
                        }
                    }
                }
            }
            JOINT lTorso_Clavicle
            {
                OFFSET   0.001000   0.157500   0.000000
                CHANNELS 3 Xrotation Yrotation Zrotation
                JOINT lShoulder
                {
                    OFFSET   0.117647   0.000000   0.000000
                    CHANNELS 3 Xrotation Yrotation Zrotation
                    JOINT lElbow
                    {
                        OFFSET   0.245000   0.000000   0.000000
                        CHANNELS 3 Xrotation Yrotation Zrotation
                        JOINT lWrist
                        {
                            OFFSET   0.240000   0.000000   0.000000
                            CHANNELS 3 Xrotation Yrotation Zrotation
                            End Site
                            {
                                OFFSET   0.116353  -0.002500   0.000000
                            }
                        }
                    }
                }
            }
        }
    }
    JOINT rHip
    {
        OFFSET  -0.100000  -0.051395   0.000000
        CHANNELS 3 Xrotation Yrotation Zrotation
        JOINT rKnee
        {
            OFFSET   0.000000  -0.410000   0.000000
            CHANNELS 3 Xrotation Yrotation Zrotation
            JOINT rAnkle
            {
                OFFSET   0.000000  -0.390000   0.000000
                CHANNELS 3 Xrotation Yrotation Zrotation
                JOINT rToeJoint
                {
                    OFFSET   0.000000  -0.050000   0.130000
                    CHANNELS 3 Xrotation Yrotation Zrotation
                    End Site
                    {
                        OFFSET  -0.010000   0.002000   0.060000
                    }
                }
            }
        }
    }
    JOINT lHip
    {
        OFFSET   0.100000  -0.051395   0.000000
        CHANNELS 3 Xrotation Yrotation Zrotation
        JOINT lKnee
        {
            OFFSET   0.000000  -0.410000   0.000000
            CHANNELS 3 Xrotation Yrotation Zrotation
            JOINT lAnkle
            {
                OFFSET   0.000000  -0.390000   0.000000
                CHANNELS 3 Xrotation Yrotation Zrotation
                JOINT lToeJoint
                {
                    OFFSET   0.000000  -0.050000   0.130000
                    CHANNELS 3 Xrotation Yrotation Zrotation
                    End Site
                    {
                        OFFSET   0.010000   0.002000   0.060000
                    }
                }
            }
        }
    }
}
MOTION
Frames: 5
Frame Time:   0.008333
 -2.677782   0.845739   3.721884 -12.786032 -21.378848   9.140494   8.340534   9.771209  -1.672957   0.854411   9.190731  -2.013149  -1.797707  -0.167377   0.288813   0.473380 -10.016173   5.032274  -4.323933   0.287612  50.233672 179.985521  71.976232 -179.986180  -1.060494   7.296266  -9.843120   4.057839  25.959900  -6.738926  -5.214303  21.445260 -52.138379 -179.890289 -84.368497 -179.885663  -4.884163  -4.764296  22.473850  -3.149856   1.114199 -21.630058  52.009953   0.000030  -0.000082 -37.784770  -6.568756  -6.643616   2.296222  -0.000013  -0.000024  -5.704874  -8.736773   9.159227  28.162218   0.000770   0.009661   9.041767  -8.721248  -5.155109 -30.813196   0.003003   0.027312
 -2.677695   0.845767   3.722040 -12.774160 -21.667405   8.976876   8.402666   9.423622  -1.657375   0.768647   8.918387  -1.935884  -1.925601   0.043352   0.199655   0.703810 -10.316462   5.076956  -3.856729  -0.103581  50.297249 179.983390  72.187343 -179.983600  -1.071294   7.360535  -9.806083   4.028784  25.512281  -6.833421  -5.305763  21.058898 -52.203793 -179.897938 -84.466515 -179.894023  -4.903265  -4.671203  22.528705  -3.194369   1.250064 -21.519203  51.978180   0.000046  -0.000023 -37.721546  -6.397982  -6.529617   2.301343  -0.000014  -0.000019  -5.584357  -8.696442   9.312993  28.225869   0.000589   0.007600   8.905816  -8.562715  -5.137497 -30.947456   0.002431   0.021993
 -2.677694   0.845756   3.722189 -12.772798 -21.957452   8.801301   8.467870   9.057396  -1.660437   0.691876   8.607134  -1.860132  -2.050443   0.247472   0.110222   0.947206 -10.645835   5.106460  -3.396840  -0.505755  50.337326 179.981242  72.399679 -179.980945  -1.089830   7.354196  -9.826784   3.965570  25.065938  -6.865877  -5.431982  20.679955 -52.234054 -179.906174 -84.548316 -179.902894  -4.899497  -4.631761  22.596654  -3.232278   1.384114 -21.393108  51.955626   0.000053   0.000012 -37.665867  -6.226974  -6.421419   2.301569  -0.000012  -0.000015  -5.471365  -8.649244   9.478062  28.326680   0.000426   0.005886   8.777799  -8.401928  -5.117763 -31.115161   0.002002   0.017751
 -2.677739   0.845742   3.722338 -12.774454 -22.273383   8.623014   8.529243   8.676103  -1.674966   0.626759   8.274451  -1.793022  -2.166077   0.438541   0.023681   1.187760 -10.978757   5.127780  -2.956737  -0.897956  50.367448 179.979352  72.603642 -179.978598  -1.113887   7.304279  -9.880909   3.888900  24.634445  -6.867195  -5.569998  20.316324 -52.247491 -179.914197 -84.619158 -179.911456  -4.879597  -4.631277  22.663953  -3.273106   1.533535 -21.264668  51.939272   0.000056   0.000033 -37.612463  -6.043921  -6.320298   2.299261  -0.000008  -0.000012  -5.349863  -8.602156   9.647331  28.435865   0.000275   0.004478   8.658712  -8.246385  -5.097300 -31.294841   0.001673   0.014410
 -2.677812   0.845738   3.722488 -12.776274 -22.615416   8.445101   8.585362   8.285975  -1.696749   0.569800   7.930430  -1.734756  -2.272778   0.616424  -0.058803   1.420180 -11.306707   5.143900  -2.539772  -1.274778  50.392117 179.977838  72.796577 -179.976714  -1.140217   7.234712  -9.958806   3.806639  24.219957  -6.853181  -5.710205  19.969345 -52.253461 -179.921728 -84.682024 -179.919434  -4.850988  -4.652666  22.720183  -3.318245   1.698978 -21.137358  51.924615   0.000058   0.000048 -37.558137  -5.848861  -6.225182   2.295277  -0.000004  -0.000010  -5.220865  -8.557519   9.817523  28.548450   0.000138   0.003319   8.548609  -8.099041  -5.076660 -31.465102   0.001410   0.011777
